<svg width="29" height="20" viewBox="0 0 29 20" fill="none" xmlns="http://www.w3.org/2000/svg">
<path d="M25.3587 2.45902C23.6465 1.18397 22.0982 0.455373 20.7139 0.273224C19.3296 0.0910747 18.6374 0 18.6374 0L18.3095 0.382514C20.3496 0.983607 21.8523 1.63934 22.8177 2.34973C23.7831 3.04189 24.2658 3.38798 24.2658 3.38798C23.009 2.73224 21.7704 2.22222 20.55 1.85792C19.3478 1.49362 18.182 1.25683 17.0527 1.14754C16.1784 1.03825 15.3314 0.992714 14.5117 1.01093C13.7103 1.02914 12.9361 1.0929 12.1893 1.20219C12.1347 1.20219 12.08 1.20219 12.0254 1.20219C11.9707 1.20219 11.8979 1.2204 11.8068 1.25683C11.3696 1.27505 10.6684 1.39344 9.70298 1.61202C8.7558 1.81239 7.63559 2.18579 6.34233 2.73224C5.88695 2.95082 5.53176 3.12386 5.27675 3.25137C5.03996 3.37887 4.92156 3.44262 4.92156 3.44262C4.92156 3.44262 5.42247 3.07832 6.42429 2.34973C7.44433 1.60291 9.03814 0.928962 11.2057 0.327869L10.9325 0.0546448C10.9325 0.0546448 10.2403 0.145719 8.85599 0.327869C7.48987 0.491803 5.9416 1.2204 4.21118 2.51366C4.21118 2.51366 4.02903 2.87796 3.66473 3.60656C3.31865 4.33516 2.92702 5.32787 2.48987 6.5847C2.05271 7.84153 1.66109 9.30783 1.315 10.9836C0.950704 12.6776 0.768555 14.4809 0.768555 16.3934C0.768555 16.3934 0.905167 16.5756 1.17839 16.9399C1.4334 17.3042 1.85234 17.7049 2.43522 18.1421C3.0181 18.5792 3.77402 18.9891 4.70298 19.3716C5.63194 19.7541 6.76127 19.9636 8.09096 20C8.09096 20 8.27311 19.7814 8.63741 19.3443C9.00171 18.9071 9.34779 18.4699 9.67566 18.0328C8.1456 17.5774 7.07092 17.0036 6.45161 16.3115C5.83231 15.6011 5.52265 15.2459 5.52265 15.2459C5.52265 15.2459 5.5773 15.2823 5.68659 15.3552C5.79588 15.4281 5.95981 15.5191 6.17839 15.6284C6.17839 15.6284 6.1875 15.6375 6.20571 15.6557C6.22393 15.674 6.23304 15.6831 6.23304 15.6831C6.28768 15.7013 6.32411 15.7286 6.34233 15.765C6.37876 15.7832 6.41518 15.8106 6.45161 15.847C6.74305 16.0109 7.03449 16.1566 7.32593 16.2842C7.63559 16.3934 7.94524 16.5027 8.25489 16.612C8.7467 16.8306 9.27493 17.0219 9.83959 17.1858C10.4225 17.3497 11.06 17.5046 11.7522 17.6503C12.6447 17.8142 13.6192 17.9235 14.6757 17.9781C15.7321 18.0146 16.8341 17.9235 17.9817 17.7049C18.5281 17.5956 19.0837 17.459 19.6483 17.2951C20.2312 17.1311 20.8232 16.9217 21.4243 16.6667C21.8615 16.5027 22.3077 16.3115 22.7631 16.0929C23.2367 15.8561 23.7194 15.5738 24.2112 15.2459C24.2112 15.2459 23.8833 15.6011 23.2276 16.3115C22.5718 17.0219 21.4607 17.5956 19.8942 18.0328C20.2403 18.4882 20.5864 18.9344 20.9325 19.3716C21.2968 19.7905 21.4789 20 21.4789 20C22.8086 19.9636 23.9288 19.7541 24.8396 19.3716C25.7686 18.9891 26.5154 18.5792 27.08 18.1421C27.6629 17.7049 28.091 17.3042 28.3642 16.9399C28.6192 16.5756 28.7467 16.3934 28.7467 16.3934C28.7649 14.4627 28.5919 12.6503 28.2276 10.9563C27.8815 9.2623 27.4899 7.78689 27.0527 6.53006C26.6338 5.27322 26.2513 4.28051 25.9052 3.55191C25.5409 2.82332 25.3587 2.45902 25.3587 2.45902ZM10.3314 14.0984C9.67566 14.0984 9.111 13.8434 8.63741 13.3333C8.16382 12.8051 7.92702 12.1858 7.92702 11.4754C7.92702 10.7468 8.16382 10.1275 8.63741 9.61749C9.111 9.10747 9.67566 8.85246 10.3314 8.85246C11.0053 8.85246 11.5791 9.10747 12.0527 9.61749C12.5445 10.1093 12.7904 10.7286 12.7904 11.4754C12.7904 12.1858 12.5536 12.8051 12.08 13.3333C11.6064 13.8434 11.0236 14.0984 10.3314 14.0984ZM19.0746 14.0984C18.4188 14.0984 17.8542 13.8434 17.3806 13.3333C16.907 12.8051 16.6702 12.1858 16.6702 11.4754C16.6702 10.7468 16.907 10.1275 17.3806 9.61749C17.8542 9.10747 18.4188 8.85246 19.0746 8.85246C19.7485 8.85246 20.3223 9.10747 20.7959 9.61749C21.2877 10.1093 21.5336 10.7286 21.5336 11.4754C21.5336 12.1858 21.2968 12.8051 20.8232 13.3333C20.3496 13.8434 19.7667 14.0984 19.0746 14.0984Z" fill="#FFFDFC"/>
</svg>
