<svg width="28" height="28" viewBox="0 0 28 28" fill="none" xmlns="http://www.w3.org/2000/svg">
<path d="M14.0001 28.001C21.7322 28.001 28.0002 24.5187 28.0002 20.2232C28.0002 15.9276 21.7322 12.4453 14.0001 12.4453C6.26806 12.4453 0 15.9276 0 20.2232C0 24.5187 6.26806 28.001 14.0001 28.001Z" fill="#999390"/>
<path d="M14.0001 26.4463C21.7322 26.4463 28.0002 22.964 28.0002 18.6685C28.0002 14.3729 21.7322 10.8906 14.0001 10.8906C6.26806 10.8906 0 14.3729 0 18.6685C0 22.964 6.26806 26.4463 14.0001 26.4463Z" fill="#080503"/>
<path d="M13.9997 24.1119C2.36558 24.1119 0.777344 12.4451 0.777344 9.33398H27.222C27.222 10.8896 25.6991 24.1119 13.9997 24.1119Z" fill="#FFFDFC"/>
<path d="M27.222 9.37893C27.222 13.4359 21.3023 16.7243 13.9997 16.7243C6.69706 16.7243 0.777344 13.4351 0.777344 9.37893C0.777344 5.32201 6.69706 2.81055 13.9997 2.81055C21.3023 2.81055 27.222 5.32201 27.222 9.37893Z" fill="#999390"/>
<path d="M13.9998 15.5569C20.4431 15.5569 25.6665 13.1194 25.6665 10.1125C25.6665 7.10555 20.4431 4.66797 13.9998 4.66797C7.55639 4.66797 2.33301 7.10555 2.33301 10.1125C2.33301 13.1194 7.55639 15.5569 13.9998 15.5569Z" fill="#080503"/>
<path d="M16.3338 13.2231C16.1347 13.2231 15.9356 13.1469 15.7839 12.9952C13.9662 11.1775 13.9359 9.19574 15.6867 6.56916C16.2615 5.7066 16.3867 4.82226 16.0585 3.94259C15.6999 2.98125 14.94 2.39013 14.7121 2.32713C14.282 2.32713 13.967 1.98257 13.967 1.55246C13.967 1.12312 14.3489 0.778562 14.7782 0.778562C15.5537 0.778562 16.641 1.67535 17.2539 2.82024C18.0582 4.3237 17.9617 5.96171 16.9809 7.43173C15.4557 9.71997 15.7901 10.8011 16.8837 11.8946C17.1878 12.1988 17.1878 12.6903 16.8837 12.9944C16.732 13.1469 16.5329 13.2231 16.3338 13.2231ZM11.6671 11.6675C11.468 11.6675 11.2689 11.5913 11.1172 11.4396C9.29953 9.62197 9.26919 7.64017 11.02 5.0136C11.5854 4.16503 11.7145 3.39347 11.4042 2.72147C11.0589 1.97402 10.2912 1.5789 10.0944 1.55557C9.66509 1.55557 9.3252 1.2079 9.3252 0.777784C9.3252 0.348447 9.68142 0 10.1115 0C10.887 0 12.1221 0.757561 12.7249 1.88457C13.099 2.5838 13.5431 4.03203 12.3142 5.87538C10.789 8.16362 11.1234 9.24474 12.217 10.3383C12.5211 10.6424 12.5211 11.134 12.217 11.4381C12.0653 11.5913 11.8662 11.6675 11.6671 11.6675Z" fill="#FFFDFC"/>
</svg>

