<svg width="45" height="26" viewBox="0 0 45 26" fill="none" xmlns="http://www.w3.org/2000/svg">
<path fill-rule="evenodd" clip-rule="evenodd" d="M11.4014 22.2638C17.5037 25.7866 27.3974 25.7866 33.4998 22.2638C36.3091 20.6419 37.8251 18.5562 38.0477 16.4337C38.3067 18.9203 36.7905 21.457 33.4993 23.357C27.397 26.8799 17.5032 26.8799 11.4009 23.357C8.10798 21.456 6.59199 18.9176 6.85297 16.4297C7.07413 18.5536 8.59026 20.6409 11.4014 22.2638Z" fill="#FFFDFC"/>
<g clip-path="url(#clip0)">
<path d="M26.8722 14.9534L19.3226 10.595C19.2452 10.5504 19.1249 10.5504 19.0475 10.595L17.7749 11.3297C17.6975 11.3744 17.6975 11.4439 17.7749 11.4886L20.6382 13.1416L16.7603 15.3803C16.6829 15.425 16.6829 15.4945 16.7603 15.5392L18.3252 16.4426C18.4026 16.4873 18.523 16.4873 18.6004 16.4426L22.4783 14.2039L25.3417 15.8569C25.419 15.9015 25.5394 15.9015 25.6168 15.8569L26.8894 15.1222C26.9496 15.0676 26.9496 14.9981 26.8722 14.9534Z" fill="#FFFDFC"/>
<path d="M24.9032 11.7311C25.548 12.1034 26.5885 12.0984 27.2248 11.7311C27.8697 11.3588 27.8611 10.7582 27.2248 10.3908C26.5799 10.0185 25.5395 10.0235 24.9032 10.3908C24.2583 10.7631 24.2583 11.3588 24.9032 11.7311Z" fill="#FFFDFC"/>
<path d="M33.433 6.80839C27.328 3.28397 17.4396 3.28397 11.3346 6.80839C5.22959 10.3328 5.22959 16.0414 11.3346 19.5658C17.4396 23.0902 27.328 23.0902 33.433 19.5658C39.538 16.0414 39.538 10.3328 33.433 6.80839ZM22.3838 21.0103C18.7552 21.0103 15.3501 20.1962 12.7964 18.7219C10.2426 17.2476 8.82381 15.2769 8.8324 13.1871C8.8238 11.0973 10.234 9.13152 12.7964 7.65226C15.3587 6.173 18.7638 5.35891 22.3838 5.36387C26.0038 5.35891 29.4088 6.173 31.9712 7.65226C34.5336 9.13152 35.9438 11.0973 35.9352 13.1871C35.9352 15.2819 34.525 17.2476 31.9712 18.7219C29.4088 20.2012 26.0038 21.0153 22.3838 21.0103Z" fill="#FFFDFC"/>
</g>
<defs>
<clipPath id="clip0">
<rect width="25.5165" height="25.5165" fill="white" transform="matrix(0.866044 0.499967 -0.866044 0.499967 22.3838 0.429688)"/>
</clipPath>
</defs>
</svg>
