<svg width="45" height="26" viewBox="0 0 45 26" fill="none" xmlns="http://www.w3.org/2000/svg">
<path fill-rule="evenodd" clip-rule="evenodd" d="M11.4011 22.2641C17.5034 25.787 27.3972 25.787 33.4995 22.2641C36.3088 20.6423 37.8248 18.5566 38.0475 16.4341C38.3064 18.9207 36.7903 21.4574 33.4991 23.3574C27.3968 26.8803 17.503 26.8803 11.4007 23.3574C8.10774 21.4564 6.59174 18.918 6.85272 16.4301C7.07389 18.5539 8.59002 20.6413 11.4011 22.2641Z" fill="#FFFDFC"/>
<g clip-path="url(#clip0_1264_1499)">
<path d="M33.4332 6.80836C27.3282 3.28394 17.4398 3.28394 11.3348 6.80836C5.22984 10.3328 5.22984 16.0413 11.3348 19.5658C17.4398 23.0902 27.3282 23.0902 33.4332 19.5658C39.5382 16.0413 39.5382 10.3328 33.4332 6.80836ZM22.384 21.0103C18.7554 21.0103 15.3504 20.1962 12.7966 18.7219C10.2428 17.2476 8.82405 15.2769 8.83265 13.1871C8.82405 11.0972 10.2342 9.13149 12.7966 7.65223C15.359 6.17297 18.764 5.35888 22.384 5.36384C26.004 5.35888 29.4091 6.17297 31.9715 7.65223C34.5338 9.13149 35.944 11.0972 35.9354 13.1871C35.9354 15.2819 34.5252 17.2476 31.9715 18.7219C29.4091 20.2011 26.004 21.0152 22.384 21.0103Z" fill="#FFFDFC"/>
</g>
<path fill-rule="evenodd" clip-rule="evenodd" d="M28.9047 12.7083C29.9709 13.4426 30.5364 14.1847 29.5669 14.8632L29.5677 14.8633C28.8594 15.3606 28.0611 15.4424 27.2677 15.2943C27.9229 15.9137 27.9508 16.5224 26.6925 17.1249C25.1311 17.8736 23.6822 17.4793 22.0733 16.6506L21.3983 17.0403L20.4929 16.5176L21.1478 16.1395C20.913 16.0042 20.6746 15.8641 20.432 15.7178L19.7701 16.1L18.8655 15.5777L19.5435 15.1863C19.3334 15.0634 18.3617 14.4974 18.1424 14.3708L18.9358 13.9205L19.6909 14.3564L24.9209 11.3368L24.1699 10.8983L24.9706 10.4391C24.9706 10.4391 26.1733 11.1348 26.373 11.2457L27.0596 10.8493L27.9642 11.3716L27.3069 11.7511C27.5533 11.8881 27.801 12.0258 28.0388 12.1631L28.6865 11.7892L29.5916 12.3118L28.9047 12.7083ZM21.7222 15.2002C22.4531 15.6345 24.0505 16.5836 25.0823 15.9879L25.0814 15.9875C26.1366 15.378 24.541 14.4991 23.7641 14.0711C23.6779 14.0237 23.6018 13.9818 23.5405 13.9464L21.5472 15.0972C21.5979 15.1264 21.6565 15.1612 21.7222 15.2002ZM24.6019 13.5078C25.2106 13.8711 26.5372 14.6629 27.4746 14.1216C28.4339 13.5684 27.1034 12.8392 26.4523 12.4823C26.3789 12.442 26.3141 12.4065 26.2622 12.3765L24.4542 13.4204C24.4969 13.4451 24.5464 13.4746 24.6019 13.5078Z" fill="#FFFDFC"/>
<path d="M21.5928 9.89672L20.1348 9.05493L18.6768 9.89672L20.1348 10.7385L21.5928 9.89672Z" fill="#FFFDFC"/>
<path d="M21.5929 11.5803L20.1348 10.7385L18.6768 11.5803L20.1348 12.4221L21.5929 11.5803Z" fill="#FFFDFC"/>
<path d="M17.2185 9.05477L18.6765 9.89656L17.2185 10.7384L15.7605 9.89656L17.2185 9.05477Z" fill="#FFFDFC"/>
<path d="M18.6768 11.5803L17.2188 10.7385L15.7608 11.5803L17.2188 12.422L18.6768 11.5803Z" fill="#FFFDFC"/>
<defs>
<clipPath id="clip0_1264_1499">
<rect width="25.5165" height="25.5165" fill="white" transform="matrix(0.866044 0.499967 -0.866044 0.499967 22.384 0.429657)"/>
</clipPath>
</defs>
</svg>
