<svg width="181" height="41" viewBox="0 0 181 41" fill="none" xmlns="http://www.w3.org/2000/svg">
<path fill-rule="evenodd" clip-rule="evenodd" d="M176.826 23.2633C176.826 20.9128 175.441 19.1432 173.256 19.1432C171.071 19.1432 169.685 20.9128 169.685 23.2633C169.685 25.6136 171.071 27.3832 173.256 27.3832C175.446 27.3876 176.826 25.618 176.826 23.2633ZM176.719 17.566V11.4084C176.719 11.0018 176.991 10.6488 177.384 10.546L180.65 9.67468V30.511H177.027V28.7416C176.116 30.0686 174.48 30.8461 172.433 30.8461C168.229 30.8461 165.767 27.4725 165.767 23.2677C165.767 19.0628 168.229 15.6892 172.433 15.6892C174.475 15.6848 175.973 16.5695 176.719 17.566ZM154.426 16.0154V17.785C155.091 16.5382 156.584 15.6803 158.742 15.6803C162.228 15.6803 164.081 18.0038 164.081 21.4624V30.511H160.154V21.9093C160.154 20.2201 159.435 19.0584 157.692 19.0584C155.784 19.0584 154.734 20.2739 154.734 22.2132V30.511H150.807V16.0154H154.426ZM141.624 30.8461C137.392 30.8461 135.037 29.0186 135.037 24.3177V16.0154H138.965V24.3714C138.965 26.3911 139.877 27.3294 141.619 27.3294C143.362 27.3294 144.273 26.3866 144.273 24.3714V16.0154H148.201V24.3132C148.21 29.0186 145.855 30.8461 141.624 30.8461ZM122.07 23.2633C122.07 25.8638 123.674 27.3832 125.747 27.3832C127.821 27.3832 129.425 25.8594 129.425 23.2633C129.425 20.667 127.821 19.1432 125.747 19.1432C123.678 19.1432 122.07 20.6626 122.07 23.2633ZM125.752 30.8461C121.105 30.8461 118.142 27.3876 118.142 23.2677C118.142 19.1478 121.1 15.6892 125.752 15.6892C130.399 15.6892 133.362 19.1478 133.362 23.2677C133.357 27.3876 130.399 30.8461 125.752 30.8461ZM106.171 23.2633C106.171 25.6136 107.556 27.3832 109.741 27.3832C111.926 27.3832 113.312 25.6136 113.312 23.2633C113.312 20.9128 111.926 19.1432 109.741 19.1432C107.556 19.1432 106.171 20.9128 106.171 23.2633ZM106.283 28.9649V34.9928C106.283 35.3995 106.01 35.7525 105.617 35.8552L102.355 36.7132V16.0154H105.979V17.785C106.89 16.4578 108.526 15.6803 110.573 15.6803C114.777 15.6803 117.239 19.0539 117.239 23.2588C117.239 27.4635 114.777 30.8372 110.573 30.8372C108.521 30.8461 107.029 29.9614 106.283 28.9649ZM90.6879 22.2668V30.511H86.7602V21.9093C86.7602 20.3051 86.1793 19.0584 84.4366 19.0584C82.6091 19.0584 81.6126 20.2471 81.6126 22.1864V30.5155H77.6849V16.0154H81.3087V17.785C81.9745 16.5382 83.4134 15.6803 85.4867 15.6803C87.4528 15.6803 88.8604 16.4534 89.6916 17.7268C90.965 16.3148 92.4307 15.6803 94.504 15.6803C97.9894 15.6803 99.7588 18.0888 99.7588 21.4624V30.511H95.8311V21.9093C95.8311 20.3051 95.2503 19.0584 93.5075 19.0584C91.6532 19.0584 90.6879 20.2471 90.6879 22.2668ZM64.5789 23.2633C64.5789 25.8638 66.1831 27.3832 68.2564 27.3832C70.3298 27.3832 71.934 25.8594 71.934 23.2633C71.934 20.667 70.3298 19.1432 68.2564 19.1432C66.1831 19.1432 64.5789 20.6626 64.5789 23.2633ZM68.2564 30.8461C63.6092 30.8461 60.6467 27.3876 60.6467 23.2677C60.6467 19.1478 63.6047 15.6892 68.2564 15.6892C72.908 15.6892 75.8661 19.1478 75.8661 23.2677C75.8661 27.3876 72.9035 30.8461 68.2564 30.8461ZM40.2661 20.6626C40.2661 14.5229 44.4978 10.4522 50.1413 10.4522C55.0388 10.4522 58.9129 13.3567 59.6592 18.1424H55.3426C54.7617 15.6803 52.7689 14.295 50.1413 14.295C46.5443 14.295 44.5246 16.784 44.5246 20.6581C44.5246 24.5322 46.5443 27.0211 50.1413 27.0211C52.7689 27.0211 54.7617 25.6359 55.3426 23.1738H59.6592C58.9129 27.9596 55.0388 30.864 50.1413 30.864C44.4978 30.8729 40.2661 26.8066 40.2661 20.6626Z" fill="black"/>
<path fill-rule="evenodd" clip-rule="evenodd" d="M1.61311 31.7286C0.612175 31.1163 0 30.0262 0 28.8553V22.318C0 22.0677 0.0670266 21.8266 0.192143 21.6121C0.580897 20.9417 1.4433 20.7139 2.11357 21.1071L16.8684 29.7088C17.7308 30.2137 18.2625 31.1343 18.2625 32.1352V38.9093C18.2625 39.2176 18.1775 39.526 18.0168 39.7896C17.5297 40.585 16.493 40.8352 15.6976 40.3481L1.61311 31.7286ZM23.6067 19.3152C24.4691 19.8201 25.0009 20.7407 25.0009 21.7416V35.4864C25.0009 35.8932 24.7819 36.2684 24.4289 36.4651L21.1982 38.2838C21.158 38.3061 21.1133 38.324 21.0687 38.3374V30.7053C21.0687 29.7177 20.5503 28.8017 19.7013 28.2923L6.74287 20.5396V11.9245C6.74287 11.6742 6.8099 11.4329 6.93501 11.2184C7.32376 10.5482 8.18618 10.3203 8.85644 10.7135L23.6067 19.3152ZM30.0637 9.16296C30.9305 9.66343 31.4623 10.5929 31.4623 11.5938V31.6705C31.4623 32.0816 31.2344 32.4613 30.8725 32.658L27.8115 34.3113V20.334C27.8115 19.3466 27.2933 18.4349 26.4487 17.9255L13.2042 9.98069V1.80792C13.2042 1.55769 13.2712 1.31639 13.3919 1.1019C13.7807 0.43164 14.6431 0.20375 15.3133 0.592504L30.0637 9.16296Z" fill="black"/>
</svg>
