<svg width="31" height="22" viewBox="0 0 31 22" fill="none" xmlns="http://www.w3.org/2000/svg">
<path d="M27.2718 2.70492C25.3884 1.30237 23.6853 0.500911 22.1625 0.300546C20.6398 0.100182 19.8784 0 19.8784 0L19.5177 0.420765C21.7618 1.08197 23.4148 1.80328 24.4768 2.5847C25.5387 3.34608 26.0697 3.72678 26.0697 3.72678C24.6871 3.00546 23.3247 2.44444 21.9822 2.04372C20.6598 1.64299 19.3775 1.38251 18.1352 1.2623C17.1735 1.14208 16.2418 1.09199 15.3401 1.11202C14.4585 1.13206 13.607 1.20219 12.7855 1.3224C12.7254 1.3224 12.6653 1.3224 12.6052 1.3224C12.5451 1.3224 12.4649 1.34244 12.3647 1.38251C11.8839 1.40255 11.1125 1.53279 10.0505 1.77322C9.00863 1.99362 7.77639 2.40437 6.3538 3.00546C5.85289 3.2459 5.46218 3.43625 5.18167 3.5765C4.9212 3.71676 4.79096 3.78689 4.79096 3.78689C4.79096 3.78689 5.34196 3.38616 6.44397 2.5847C7.56601 1.76321 9.3192 1.02186 11.7035 0.360656L11.403 0.0601093C11.403 0.0601093 10.6416 0.160291 9.11883 0.360656C7.6161 0.540984 5.913 1.34244 4.00954 2.76503C4.00954 2.76503 3.80918 3.16576 3.40845 3.96721C3.02776 4.76867 2.59697 5.86066 2.1161 7.24317C1.63522 8.62568 1.20444 10.2386 0.823749 12.082C0.423021 13.9454 0.222656 15.929 0.222656 18.0328C0.222656 18.0328 0.372929 18.2332 0.673476 18.6339C0.953986 19.0346 1.41482 19.4754 2.05599 19.9563C2.69716 20.4372 3.52867 20.888 4.55053 21.3087C5.57238 21.7295 6.81464 21.9599 8.2773 22C8.2773 22 8.47767 21.7596 8.87839 21.2787C9.27912 20.7978 9.65982 20.3169 10.0205 19.8361C8.33741 19.3352 7.15526 18.704 6.47402 17.9426C5.79278 17.1612 5.45216 16.7705 5.45216 16.7705C5.45216 16.7705 5.51227 16.8106 5.63249 16.8907C5.75271 16.9709 5.93304 17.071 6.17348 17.1913C6.17348 17.1913 6.18349 17.2013 6.20353 17.2213C6.22357 17.2413 6.23359 17.2514 6.23359 17.2514C6.29369 17.2714 6.33377 17.3015 6.3538 17.3415C6.39388 17.3616 6.43395 17.3916 6.47402 17.4317C6.79461 17.612 7.11519 17.7723 7.43577 17.9126C7.77639 18.0328 8.11701 18.153 8.45763 18.2732C8.99861 18.5137 9.57967 18.724 10.2008 18.9044C10.842 19.0847 11.5432 19.255 12.3046 19.4153C13.2864 19.5956 14.3584 19.7158 15.5205 19.776C16.6826 19.816 17.8948 19.7158 19.1571 19.4754C19.7582 19.3552 20.3693 19.2049 20.9904 19.0246C21.6316 18.8443 22.2828 18.6138 22.944 18.3333C23.4248 18.153 23.9157 17.9426 24.4166 17.7022C24.9376 17.4417 25.4686 17.1311 26.0095 16.7705C26.0095 16.7705 25.6489 17.1612 24.9276 17.9426C24.2063 18.724 22.984 19.3552 21.2609 19.8361C21.6416 20.337 22.0223 20.8279 22.403 21.3087C22.8037 21.7696 23.0041 22 23.0041 22C24.4667 21.9599 25.699 21.7295 26.7008 21.3087C27.7227 20.888 28.5442 20.4372 29.1653 19.9563C29.8064 19.4754 30.2773 19.0346 30.5779 18.6339C30.8584 18.2332 30.9986 18.0328 30.9986 18.0328C31.0187 15.9089 30.8283 13.9153 30.4276 12.0519C30.0469 10.1885 29.6161 8.56557 29.1352 7.18306C28.6744 5.80055 28.2536 4.70856 27.8729 3.9071C27.4722 3.10565 27.2718 2.70492 27.2718 2.70492ZM10.7418 15.5082C10.0205 15.5082 9.39934 15.2277 8.87839 14.6667C8.35745 14.0856 8.09697 13.4044 8.09697 12.623C8.09697 11.8215 8.35745 11.1403 8.87839 10.5792C9.39934 10.0182 10.0205 9.7377 10.7418 9.7377C11.4831 9.7377 12.1143 10.0182 12.6352 10.5792C13.1762 11.1202 13.4467 11.8015 13.4467 12.623C13.4467 13.4044 13.1862 14.0856 12.6653 14.6667C12.1443 15.2277 11.5032 15.5082 10.7418 15.5082ZM20.3593 15.5082C19.638 15.5082 19.0168 15.2277 18.4959 14.6667C17.9749 14.0856 17.7145 13.4044 17.7145 12.623C17.7145 11.8215 17.9749 11.1403 18.4959 10.5792C19.0168 10.0182 19.638 9.7377 20.3593 9.7377C21.1006 9.7377 21.7318 10.0182 22.2527 10.5792C22.7937 11.1202 23.0642 11.8015 23.0642 12.623C23.0642 13.4044 22.8037 14.0856 22.2828 14.6667C21.7618 15.2277 21.1207 15.5082 20.3593 15.5082Z" fill="#080503"/>
</svg>
