<svg width="22" height="27" viewBox="0 0 22 27" fill="none" xmlns="http://www.w3.org/2000/svg">
<path d="M16.7526 21.5635C19.454 19.3523 21.1837 15.9241 21.1837 12.0698C21.1837 5.41623 15.9947 0 9.62018 0H0V1.15627H9.62018C15.3922 1.15627 20.0759 6.04508 20.0759 12.0698C20.0759 15.5995 18.4628 18.7438 15.9558 20.7521L14.7703 19.5147C16.9859 17.8512 18.424 15.133 18.424 12.0698C18.424 6.9985 14.4788 2.88054 9.62018 2.88054H0V4.01653H9.62018C13.8763 4.01653 17.3357 7.62734 17.3357 12.0698C17.3357 14.8085 16.0141 17.2427 13.9929 18.7032L12.8074 17.4658C14.5371 16.3501 15.6837 14.3621 15.6837 12.0901C15.6837 8.60105 12.9629 5.76108 9.62018 5.76108H0.0194755L10.8834 17.0803C10.4752 17.1818 10.0672 17.2427 9.63956 17.2427H0.0194755V18.3989H9.63956C10.3975 18.3989 11.0971 18.257 11.7774 17.9932L13.0406 19.2915C12.0106 19.8189 10.864 20.103 9.65904 20.103H0.0388563V21.2592H9.65904C11.175 21.2592 12.6131 20.8535 13.8569 20.1435L15.0618 21.4012C13.4876 22.3952 11.6219 22.9834 9.65904 22.9834H0.0388563V24.1194H9.65904C11.9523 24.1194 14.0706 23.4298 15.8781 22.2329L19.3375 25.8437H0.0388563V27H22L16.7526 21.5635ZM2.68201 6.89707H9.62018C12.3604 6.89707 14.576 9.20962 14.576 12.0698C14.576 14.0173 13.5265 15.7416 11.9911 16.6138L2.68201 6.89707Z" fill="#FFFDFC"/>
</svg>

