<svg width="61" height="50" viewBox="0 0 61 50" fill="none" xmlns="http://www.w3.org/2000/svg">
<mask id="path-1-inside-1" fill="white">
<path fill-rule="evenodd" clip-rule="evenodd" d="M21 0C9.40202 0 0 9.40202 0 21C0 32.598 9.40202 42 21 42H34V50L42.1041 41.8959C52.7141 40.8404 61 31.8878 61 21C61 9.40202 51.598 0 40 0H21Z"/>
</mask>
<path fill-rule="evenodd" clip-rule="evenodd" d="M21 0C9.40202 0 0 9.40202 0 21C0 32.598 9.40202 42 21 42H34V50L42.1041 41.8959C52.7141 40.8404 61 31.8878 61 21C61 9.40202 51.598 0 40 0H21Z" fill="#FFFDFC"/>
<path d="M34 42H35V41H34V42ZM34 50H33V52.4142L34.7071 50.7071L34 50ZM42.1041 41.8959L42.0051 40.9008L41.6496 40.9362L41.397 41.1888L42.1041 41.8959ZM1 21C1 9.95431 9.95431 1 21 1V-1C8.84974 -1 -1 8.84974 -1 21H1ZM21 41C9.95431 41 1 32.0457 1 21H-1C-1 33.1503 8.84974 43 21 43V41ZM34 41H21V43H34V41ZM35 50V42H33V50H35ZM41.397 41.1888L33.2929 49.2929L34.7071 50.7071L42.8112 42.603L41.397 41.1888ZM60 21C60 31.3688 52.1088 39.8957 42.0051 40.9008L42.2031 42.891C53.3194 41.7851 62 32.4069 62 21H60ZM40 1C51.0457 1 60 9.95431 60 21H62C62 8.84974 52.1503 -1 40 -1V1ZM21 1H40V-1H21V1Z" fill="#111010" mask="url(#path-1-inside-1)"/>
</svg>
