<svg width="48" height="48" viewBox="0 0 48 48" fill="none" xmlns="http://www.w3.org/2000/svg">
<g clip-path="url(#clip0_1264_1613)">
<g filter="url(#filter0_b_1264_1613)">
<path d="M25 46.7651C29.549 46.1313 33.9957 44.2352 37.7781 41.3166C41.5604 38.398 44.5084 34.5881 46.2493 30.3683C47.9901 26.1487 48.4455 21.7091 47.5581 17.6107C46.6706 13.5122 44.48 9.93922 41.2634 7.34345C38.0469 4.74768 33.9486 3.24575 29.487 3.02756C25.0254 2.80937 20.401 3.88472 16.1983 6.11765C11.9956 8.35059 8.40347 11.6408 5.8762 15.5722C3.34893 19.5036 2 23.8996 2 28.2044C2 33.977 4.42321 39.1754 8.73654 42.6562C13.0499 46.137 18.9 47.6151 25 46.7651Z" fill="#080503"/>
</g>
<g filter="url(#filter1_b_1264_1613)">
<path d="M44.3266 24.1525C41.3211 36.2425 29.1109 45.0784 17.0546 43.8883C5.00398 42.6975 -2.33244 31.9304 0.673712 19.841C3.67776 7.74984 15.8873 -1.08735 27.9401 0.1032C39.9956 1.29335 47.332 12.0618 44.3266 24.1525Z" fill="#FFFDFC"/>
<path d="M1.25598 19.9858L1.25601 19.9856C4.19135 8.17103 16.1375 -0.459718 27.8811 0.700294L27.8811 0.700298C39.5528 1.85255 46.6663 12.2527 43.7443 24.0077C40.8076 35.8211 28.8608 44.4508 17.1136 43.2912C5.44677 42.1383 -1.6667 31.7395 1.25598 19.9858Z" stroke="#080503" stroke-width="1.2"/>
</g>
<path fill-rule="evenodd" clip-rule="evenodd" d="M31.8934 13.2392C34.7752 13.7174 36.8128 14.8283 36.1344 17.6659L36.136 17.6653C35.6427 19.7425 34.3962 20.9199 32.8262 21.5323C34.8399 22.2349 35.7659 23.6805 34.4843 26.6876C32.8955 30.4214 29.85 31.2389 25.9041 31.1963L25.3125 32.9712L23.0107 32.8102L23.5847 31.0883C22.988 31.0473 22.3784 30.9989 21.7526 30.9406L21.1725 32.681L18.8728 32.5202L19.467 30.7375C18.9304 30.6964 16.4529 30.5116 15.8954 30.4726L16.6019 28.4053L18.5215 28.5395L23.1049 14.7883L21.1883 14.6428L21.8945 12.5451C21.8945 12.5451 24.9541 12.7619 25.4556 12.7869L26.0573 10.9816L28.357 11.1425L27.781 12.8708C28.3998 12.9018 29.0221 12.933 29.6267 12.9753L30.1943 11.2724L32.4954 11.4333L31.8934 13.2392ZM23.2112 28.101C25.0873 28.2607 29.1872 28.6099 30.0913 25.8972L30.0893 25.8971C31.0135 23.1222 27.0179 22.9414 25.0725 22.8534C24.8567 22.8436 24.6661 22.835 24.5103 22.8241L22.7635 28.0648C22.8922 28.0738 23.0427 28.0866 23.2112 28.101ZM25.6918 20.4568C27.2565 20.5939 30.6665 20.8927 31.488 18.4279C32.3295 15.9071 29.0031 15.7652 27.3753 15.6958C27.1917 15.688 27.0297 15.681 26.8977 15.6717L25.3132 20.4255C25.4218 20.4331 25.5492 20.4443 25.6918 20.4568Z" fill="#080503"/>
<path d="M15.3381 15.3668L11.6312 15.1076L10.3535 18.9411L14.0604 19.2003L15.3381 15.3668Z" fill="#080503"/>
<path d="M17.7672 19.4595L14.0604 19.2003L12.7827 23.0338L16.4895 23.293L17.7672 19.4595Z" fill="#080503"/>
<path d="M6.64602 18.6818L10.3529 18.941L9.07513 22.7746L5.36828 22.5154L6.64602 18.6818Z" fill="#080503"/>
<path d="M12.7827 23.0338L9.07584 22.7744L7.79811 26.608L11.505 26.8672L12.7827 23.0338Z" fill="#080503"/>
</g>
<defs>
<filter id="filter0_b_1264_1613" x="-3.01275" y="-2.01287" width="56.0255" height="54.0255" filterUnits="userSpaceOnUse" color-interpolation-filters="sRGB">
<feFlood flood-opacity="0" result="BackgroundImageFix"/>
<feGaussianBlur in="BackgroundImageFix" stdDeviation="2.50638"/>
<feComposite in2="SourceAlpha" operator="in" result="effect1_backgroundBlur_1264_1613"/>
<feBlend mode="normal" in="SourceGraphic" in2="effect1_backgroundBlur_1264_1613" result="shape"/>
</filter>
<filter id="filter1_b_1264_1613" x="-3.40542" y="-3.40969" width="51.8108" height="50.8108" filterUnits="userSpaceOnUse" color-interpolation-filters="sRGB">
<feFlood flood-opacity="0" result="BackgroundImageFix"/>
<feGaussianBlur in="BackgroundImageFix" stdDeviation="1.70271"/>
<feComposite in2="SourceAlpha" operator="in" result="effect1_backgroundBlur_1264_1613"/>
<feBlend mode="normal" in="SourceGraphic" in2="effect1_backgroundBlur_1264_1613" result="shape"/>
</filter>
<clipPath id="clip0_1264_1613">
<rect width="48" height="48" fill="white"/>
</clipPath>
</defs>
</svg>
